<?xml version="1.0" encoding="UTF-8" standalone="no"?>
<!-- Generator: Adobe Illustrator 16.0.0, SVG Export Plug-In . SVG Version: 6.00 Build 0)  -->

<svg
   xmlns:dc="http://purl.org/dc/elements/1.1/"
   xmlns:cc="http://creativecommons.org/ns#"
   xmlns:rdf="http://www.w3.org/1999/02/22-rdf-syntax-ns#"
   xmlns:svg="http://www.w3.org/2000/svg"
   xmlns="http://www.w3.org/2000/svg"
   xmlns:sodipodi="http://sodipodi.sourceforge.net/DTD/sodipodi-0.dtd"
   xmlns:inkscape="http://www.inkscape.org/namespaces/inkscape"
   version="1.1"
   id="Capa_1"
   x="0px"
   y="0px"
   width="97.75px"
   height="97.75px"
   viewBox="0 0 97.75 97.75"
   style="enable-background:new 0 0 97.75 97.75;"
   xml:space="preserve"
   sodipodi:docname="facebook.svg"
   inkscape:version="0.92.4 (fd57863, 2020-04-02)"><metadata
   id="metadata4669"><rdf:RDF><cc:Work
       rdf:about=""><dc:format>image/svg+xml</dc:format><dc:type
         rdf:resource="http://purl.org/dc/dcmitype/StillImage" /></cc:Work></rdf:RDF></metadata><defs
   id="defs4667" /><sodipodi:namedview
   pagecolor="#ffffff"
   bordercolor="#666666"
   borderopacity="1"
   objecttolerance="10"
   gridtolerance="10"
   guidetolerance="10"
   inkscape:pageopacity="0"
   inkscape:pageshadow="2"
   inkscape:window-width="1549"
   inkscape:window-height="845"
   id="namedview4665"
   showgrid="false"
   inkscape:zoom="6.7928389"
   inkscape:cx="46.740399"
   inkscape:cy="48.875"
   inkscape:window-x="51"
   inkscape:window-y="27"
   inkscape:window-maximized="1"
   inkscape:current-layer="Capa_1" />
<g
   id="g4632"
   style="fill:#000000;fill-opacity:1">
	<path
   d="M48.875,0C21.882,0,0,21.882,0,48.875S21.882,97.75,48.875,97.75S97.75,75.868,97.75,48.875S75.868,0,48.875,0z    M67.521,24.89l-6.76,0.003c-5.301,0-6.326,2.519-6.326,6.215v8.15h12.641L67.07,52.023H54.436v32.758H41.251V52.023H30.229V39.258   h11.022v-9.414c0-10.925,6.675-16.875,16.42-16.875l9.851,0.015V24.89L67.521,24.89z"
   id="path4630"
   style="fill:#000000;fill-opacity:1" />
</g>
<g
   id="g4634">
</g>
<g
   id="g4636">
</g>
<g
   id="g4638">
</g>
<g
   id="g4640">
</g>
<g
   id="g4642">
</g>
<g
   id="g4644">
</g>
<g
   id="g4646">
</g>
<g
   id="g4648">
</g>
<g
   id="g4650">
</g>
<g
   id="g4652">
</g>
<g
   id="g4654">
</g>
<g
   id="g4656">
</g>
<g
   id="g4658">
</g>
<g
   id="g4660">
</g>
<g
   id="g4662">
</g>
<path
   style="fill:#313030;fill-opacity:1;fill-rule:evenodd;stroke:#000000;stroke-width:0.359;stroke-miterlimit:4;stroke-dasharray:none;stroke-opacity:1"
   d="M 41.381815,68.351393 V 51.937048 h -5.52052 -5.520519 v -6.330196 -6.330195 h 5.520519 5.52052 l 5.89e-4,-5.851751 c 4.56e-4,-4.457547 0.05232,-6.16742 0.217691,-7.176676 1.042304,-6.36101 4.534657,-10.579517 10.233291,-12.361059 2.263618,-0.707666 3.532918,-0.812767 9.827137,-0.813713 l 5.778144,-8.68e-4 v 5.877184 5.877184 l -4.453219,0.05801 c -4.918724,0.06408 -5.32932,0.127572 -6.682455,1.033402 -0.908891,0.60844 -1.608011,1.925031 -1.816762,3.421349 -0.07907,0.566774 -0.145077,3.034446 -0.146681,5.483716 l -0.0029,4.45322 h 6.330196 6.330196 v 6.330195 6.330196 H 60.66683 54.336634 v 16.414345 16.414345 h -6.47741 -6.477409 z"
   id="path4673"
   inkscape:connector-curvature="0" /></svg>