<?xml version="1.0" encoding="UTF-8" standalone="no"?>
<svg
   xmlns:dc="http://purl.org/dc/elements/1.1/"
   xmlns:cc="http://creativecommons.org/ns#"
   xmlns:rdf="http://www.w3.org/1999/02/22-rdf-syntax-ns#"
   xmlns:svg="http://www.w3.org/2000/svg"
   xmlns="http://www.w3.org/2000/svg"
   xmlns:sodipodi="http://sodipodi.sourceforge.net/DTD/sodipodi-0.dtd"
   xmlns:inkscape="http://www.inkscape.org/namespaces/inkscape"
   height="512pt"
   viewBox="0 0 512 512"
   width="512pt"
   version="1.1"
   id="svg4799"
   sodipodi:docname="linkedin.svg"
   inkscape:version="0.92.4 (fd57863, 2020-04-02)">
  <metadata
     id="metadata4805">
    <rdf:RDF>
      <cc:Work
         rdf:about="">
        <dc:format>image/svg+xml</dc:format>
        <dc:type
           rdf:resource="http://purl.org/dc/dcmitype/StillImage" />
      </cc:Work>
    </rdf:RDF>
  </metadata>
  <defs
     id="defs4803" />
  <sodipodi:namedview
     pagecolor="#ffffff"
     bordercolor="#666666"
     borderopacity="1"
     objecttolerance="10"
     gridtolerance="10"
     guidetolerance="10"
     inkscape:pageopacity="0"
     inkscape:pageshadow="2"
     inkscape:window-width="1549"
     inkscape:window-height="845"
     id="namedview4801"
     showgrid="false"
     inkscape:zoom="0.69140625"
     inkscape:cx="449.67856"
     inkscape:cy="331.5174"
     inkscape:window-x="51"
     inkscape:window-y="27"
     inkscape:window-maximized="1"
     inkscape:current-layer="svg4799" />
  <path
     d="m256 0c-141.363281 0-256 114.636719-256 256s114.636719 256 256 256 256-114.636719 256-256-114.636719-256-256-256zm-74.390625 387h-62.347656v-187.574219h62.347656zm-31.171875-213.1875h-.40625c-20.921875 0-34.453125-14.402344-34.453125-32.402344 0-18.40625 13.945313-32.410156 35.273437-32.410156 21.328126 0 34.453126 14.003906 34.859376 32.410156 0 18-13.53125 32.402344-35.273438 32.402344zm255.984375 213.1875h-62.339844v-100.347656c0-25.21875-9.027343-42.417969-31.585937-42.417969-17.222656 0-27.480469 11.601563-31.988282 22.800781-1.648437 4.007813-2.050781 9.609375-2.050781 15.214844v104.75h-62.34375s.816407-169.976562 0-187.574219h62.34375v26.558594c8.285157-12.78125 23.109375-30.960937 56.1875-30.960937 41.019531 0 71.777344 26.808593 71.777344 84.421874zm0 0"
     id="path4797"
     style="fill:#000000;fill-opacity:1" />
  <path
     style="fill:#313030;fill-opacity:1;fill-rule:evenodd;stroke:#000000;stroke-width:4.45035028;stroke-miterlimit:4;stroke-dasharray:none;stroke-opacity:1"
     d="M 288.84692,391.35717 V 266.97299 h 41.22034 41.22034 l 0.01,17.71752 c 0.009,17.31048 0.0675,17.6319 2.53107,13.99093 10.51238,-15.53625 25.82809,-27.63469 42.29554,-33.4108 8.09851,-2.84062 12.30696,-3.30184 30.37288,-3.32866 18.37484,-0.0273 22.30597,0.4058 31.7465,3.49736 37.5902,12.30996 58.59607,44.49214 62.26698,95.3965 0.78031,10.82063 1.42446,50.101 1.43145,87.2897 l 0.0127,67.61582 h -41.14928 -41.14928 l -0.46299,-76.29379 c -0.45145,-74.39608 -0.54298,-76.53135 -3.6795,-85.8445 -6.47866,-19.23682 -18.85832,-28.05381 -39.38946,-28.05381 -8.93408,0 -12.29156,0.70917 -19.03446,4.02048 -8.99105,4.41533 -16.64938,12.01208 -21.76165,21.58667 l -3.31689,6.21206 -0.4087,79.18644 -0.40871,79.18645 h -41.17321 -41.17322 z"
     id="path5350"
     inkscape:connector-curvature="0"
     transform="scale(0.74999998)" />
  <path
     style="fill:#313030;fill-opacity:1;fill-rule:evenodd;stroke:#000000;stroke-width:4.45035028;stroke-miterlimit:4;stroke-dasharray:none;stroke-opacity:1"
     d="M 160.12376,391.35717 V 266.97299 h 40.49717 40.49718 v 124.38418 124.38419 h -40.49718 -40.49717 z"
     id="path5352"
     inkscape:connector-curvature="0"
     transform="scale(0.74999998)" />
  <path
     style="fill:#313030;fill-opacity:1;fill-rule:evenodd;stroke:#000000;stroke-width:4.45035028;stroke-miterlimit:4;stroke-dasharray:none;stroke-opacity:1"
     d="m 181.22541,227.31772 c -14.75616,-6.21446 -23.7741,-17.98447 -26.13242,-34.10744 -2.06992,-14.15122 5.56156,-30.95882 17.71068,-39.00606 8.81963,-5.84189 16.13129,-7.7865 29.26359,-7.78298 24.79941,0.007 42.27476,15.55718 44.45079,39.55477 1.03838,11.45149 -2.61178,21.83327 -10.72665,30.50872 -8.72782,9.33075 -18.22097,13.24574 -33.72414,13.90788 -10.57566,0.45169 -13.48842,0.022 -20.84185,-3.07489 z"
     id="path5354"
     inkscape:connector-curvature="0"
     transform="scale(0.74999998)" />
</svg>
