<?xml version="1.0" encoding="UTF-8" standalone="no"?>
<svg
   xmlns:dc="http://purl.org/dc/elements/1.1/"
   xmlns:cc="http://creativecommons.org/ns#"
   xmlns:rdf="http://www.w3.org/1999/02/22-rdf-syntax-ns#"
   xmlns:svg="http://www.w3.org/2000/svg"
   xmlns="http://www.w3.org/2000/svg"
   xmlns:sodipodi="http://sodipodi.sourceforge.net/DTD/sodipodi-0.dtd"
   xmlns:inkscape="http://www.inkscape.org/namespaces/inkscape"
   height="512pt"
   viewBox="0 0 512 512"
   width="512pt"
   version="1.1"
   id="svg5409"
   sodipodi:docname="twitter.svg"
   inkscape:version="0.92.4 (fd57863, 2020-04-02)">
  <metadata
     id="metadata5415">
    <rdf:RDF>
      <cc:Work
         rdf:about="">
        <dc:format>image/svg+xml</dc:format>
        <dc:type
           rdf:resource="http://purl.org/dc/dcmitype/StillImage" />
      </cc:Work>
    </rdf:RDF>
  </metadata>
  <defs
     id="defs5413" />
  <sodipodi:namedview
     pagecolor="#ffffff"
     bordercolor="#666666"
     borderopacity="1"
     objecttolerance="10"
     gridtolerance="10"
     guidetolerance="10"
     inkscape:pageopacity="0"
     inkscape:pageshadow="2"
     inkscape:window-width="1549"
     inkscape:window-height="845"
     id="namedview5411"
     showgrid="false"
     inkscape:zoom="0.34570312"
     inkscape:cx="472.25516"
     inkscape:cy="400.0196"
     inkscape:window-x="51"
     inkscape:window-y="27"
     inkscape:window-maximized="1"
     inkscape:current-layer="svg5409" />
  <path
     d="m256 0c-141.363281 0-256 114.636719-256 256s114.636719 256 256 256 256-114.636719 256-256-114.636719-256-256-256zm116.886719 199.601562c.113281 2.519532.167969 5.050782.167969 7.59375 0 77.644532-59.101563 167.179688-167.183594 167.183594h.003906-.003906c-33.183594 0-64.0625-9.726562-90.066406-26.394531 4.597656.542969 9.277343.8125 14.015624.8125 27.53125 0 52.867188-9.390625 72.980469-25.152344-25.722656-.476562-47.410156-17.464843-54.894531-40.8125 3.582031.6875 7.265625 1.0625 11.042969 1.0625 5.363281 0 10.558593-.722656 15.496093-2.070312-26.886718-5.382813-47.140624-29.144531-47.140624-57.597657 0-.265624 0-.503906.007812-.75 7.917969 4.402344 16.972656 7.050782 26.613281 7.347657-15.777343-10.527344-26.148437-28.523438-26.148437-48.910157 0-10.765624 2.910156-20.851562 7.957031-29.535156 28.976563 35.554688 72.28125 58.9375 121.117187 61.394532-1.007812-4.304688-1.527343-8.789063-1.527343-13.398438 0-32.4375 26.316406-58.753906 58.765625-58.753906 16.902344 0 32.167968 7.144531 42.890625 18.566406 13.386719-2.640625 25.957031-7.53125 37.3125-14.261719-4.394531 13.714844-13.707031 25.222657-25.839844 32.5 11.886719-1.421875 23.214844-4.574219 33.742187-9.253906-7.863281 11.785156-17.835937 22.136719-29.308593 30.429687zm0 0"
     id="path5407"
     style="fill:#000000;fill-opacity:1" />
  <path
     style="fill:#313030;fill-opacity:1;fill-rule:evenodd;stroke:#313030;stroke-width:13.99999996;stroke-miterlimit:4;stroke-dasharray:none;stroke-opacity:1;stroke-linejoin:round"
     d="m 221.52604,491.05035 c -12.27865,-3.01892 -31.15323,-10.01999 -41.94351,-15.5579 l -19.61869,-10.06893 18.80226,-0.1766 c 23.33462,-0.21917 45.16179,-5.88327 68.68731,-17.8242 20.62874,-10.4706 27.90862,-16.9956 18.96184,-16.9956 -20.51488,0 -51.40409,-20.48166 -61.8912,-41.03808 l -5.86172,-11.48992 6.68465,0.55029 c 24.46456,2.01397 36.47758,-2.93916 17.49894,-7.21504 -14.80458,-3.33546 -34.31073,-20.40542 -42.04314,-36.79223 -3.99212,-8.46024 -7.96473,-19.41885 -8.82802,-24.35247 l -1.56963,-8.97022 15.75587,4.38542 c 8.66573,2.41198 16.56802,3.57326 17.56066,2.58063 0.99263,-0.99264 -2.16254,-5.14308 -7.01149,-9.22321 -14.10173,-11.86582 -23.72938,-34.24075 -23.72938,-55.14775 0,-16.3294 4.27536,-36.02188 7.82058,-36.02188 0.80813,0 11.0414,8.93926 22.7406,19.86503 32.40688,30.26445 79.15746,52.08844 121.95414,56.93034 l 17.0666,1.93086 0.0397,-18.39136 c 0.0663,-30.73736 14.97629,-55.16077 42.59963,-69.78068 23.65604,-12.52018 68.17336,-6.76758 82.65414,10.68071 5.30114,6.38749 16.1724,5.56871 36.33366,-2.7365 9.54576,-3.93227 17.72715,-7.15561 18.18086,-7.16298 2.95135,-0.0479 -7.94745,15.18884 -19.12965,26.74367 -14.71167,15.20192 -14.48463,15.46923 8.04592,9.47334 8.67629,-2.30896 16.48646,-3.47247 17.35593,-2.58557 0.86945,0.88689 -5.7156,8.41736 -14.63348,16.73437 l -16.21434,15.12183 -2.10878,24.17474 c -8.77577,100.6034 -74.34847,180.29134 -166.50211,202.34346 -31.98651,7.65428 -76.56565,7.66108 -107.65814,0.0173 z"
     id="path5960"
     inkscape:connector-curvature="0"
     transform="scale(0.74999998)" />
</svg>
